<?xml version="1.0" encoding="utf-8"?>
<!-- Generator: Adobe Illustrator 23.0.4, SVG Export Plug-In . SVG Version: 6.00 Build 0)  -->
<svg version="1.1" xmlns="http://www.w3.org/2000/svg" xmlns:xlink="http://www.w3.org/1999/xlink" x="0px" y="0px"
	 viewBox="0 0 1200 800" enable-background="new 0 0 1200 800" xml:space="preserve">
<g id="_x38_00x1200">
	<g opacity="0.5">
		<path fill="#58C3B9" d="M651.2,443.4c0,0-0.1-0.4-0.2-1.3c-0.1-0.4-0.2-0.9-0.3-1.5c-0.1-0.3-0.1-0.6-0.2-1
			c-0.1-0.3-0.2-0.7-0.2-1c-0.2-0.7-0.4-1.5-0.6-2.4c-0.2-0.9-0.5-1.8-0.8-2.9c-0.3-1-0.6-2.1-1-3.3c-0.4-1.1-0.8-2.4-1.3-3.6
			c-0.9-2.5-2-5.2-3.2-8c-1.2-2.8-2.6-5.8-4.1-8.8c-0.7-1.5-1.5-3.1-2.3-4.6c-0.8-1.6-1.6-3.1-2.5-4.7c-1.7-3.1-3.5-6.3-5.3-9.4
			c-7.4-12.5-15.5-24.6-21.9-33.5c-6.4-8.9-10.9-14.6-10.9-14.6s5,5.4,12.1,13.8c7.1,8.4,16.2,19.9,24.7,31.9c2.1,3,4.2,6.1,6.1,9.1
			c1,1.5,2,3,2.9,4.6c1,1.5,1.9,3,2.7,4.5c1.8,3,3.4,5.9,4.9,8.8c1.5,2.8,2.9,5.6,4,8.1c0.6,1.3,1.1,2.5,1.6,3.7
			c0.5,1.2,1,2.3,1.4,3.4c0.4,1.1,0.8,2.1,1.1,3.1c0.3,1,0.6,1.9,0.9,2.7c0.1,0.4,0.3,0.8,0.4,1.2c0.1,0.3,0.2,0.7,0.3,1
			c0.2,0.6,0.3,1.1,0.4,1.5c0.2,0.8,0.3,1.3,0.3,1.3c0.7,2.4-0.8,5-3.2,5.6c-2.4,0.7-5-0.8-5.6-3.2
			C651.3,443.6,651.3,443.5,651.2,443.4L651.2,443.4z"/>
		<path fill="#98D4C0" d="M483.6,396.4c0,0,1.1-1.2,3.1-3.3c1-1,2.2-2.3,3.6-3.8c1.5-1.4,3.2-3.1,5-4.8c1.8-1.8,3.9-3.5,6-5.5
			c2.1-2,4.4-3.9,6.8-5.9c2.4-2.1,4.9-4.1,7.4-6.1c2.5-2.1,5.2-4.1,7.8-6.1c2.6-2,5.3-4,7.9-5.9c2.7-1.9,5.3-3.8,7.8-5.5
			c2.6-1.8,5-3.5,7.4-5c2.4-1.6,4.6-3.1,6.7-4.4c2.1-1.4,4-2.5,5.7-3.6c1.7-1,3.2-2,4.5-2.7c2.5-1.5,3.9-2.3,3.9-2.3
			s-1.4,0.9-3.7,2.6c-1.2,0.9-2.6,1.9-4.2,3.1c-1.6,1.2-3.4,2.6-5.4,4.1c-2,1.5-4.1,3.2-6.3,4.9c-2.2,1.8-4.5,3.7-6.9,5.6
			c-2.4,2-4.8,4.1-7.3,6.2c-2.4,2.2-4.9,4.3-7.3,6.5c-2.4,2.2-4.9,4.4-7.2,6.7c-2.3,2.2-4.6,4.4-6.8,6.6c-2.2,2.2-4.3,4.3-6.1,6.4
			c-1.9,2.1-3.8,4-5.3,5.8c-1.6,1.8-3,3.5-4.3,5c-1.3,1.5-2.4,2.9-3.3,4c-1.8,2.3-2.8,3.5-2.8,3.5l0,0c-1.6,2-4.5,2.3-6.4,0.7
			c-2-1.6-2.3-4.5-0.7-6.4C483.4,396.6,483.5,396.5,483.6,396.4z"/>
		<path fill="#58C3B9" d="M583.9,310.1c0,0-1.9-3.3-5.2-9c-0.8-1.4-1.8-3-2.9-4.6c-1.1-1.7-2.2-3.5-3.5-5.4c-1.2-2-2.7-3.9-4.1-6
			c-0.7-1.1-1.5-2.1-2.3-3.2c-0.8-1.1-1.6-2.2-2.4-3.3c-1.7-2.2-3.5-4.6-5.4-7c-1.9-2.4-3.9-4.8-6-7.2c-0.5-0.6-1-1.2-1.6-1.9
			c-0.5-0.6-1.1-1.2-1.7-1.8c-1.1-1.2-2.2-2.5-3.4-3.7c-2.2-2.6-4.7-5-7.1-7.5c-2.4-2.6-5-5-7.7-7.5c-2.6-2.5-5.4-4.9-8.1-7.4
			l-2.1-1.8l-2.1-1.8c-1.4-1.2-2.9-2.4-4.3-3.5c-1.4-1.2-2.9-2.3-4.4-3.5l-4.4-3.4c-3-2.2-6-4.4-9.1-6.5c-3.1-2.1-6.1-4.2-9.3-6.1
			c-1.6-1-3.1-2-4.6-2.9c-1.6-0.9-3.1-1.9-4.7-2.8c-3.1-1.9-6.2-3.6-9.3-5.3c-1.5-0.9-3.1-1.6-4.6-2.5c-1.5-0.8-3-1.6-4.5-2.4
			c-3-1.5-6-3-8.9-4.3c-5.8-2.8-11.4-5.1-16.6-7.2c-5.2-2.1-10-3.9-14.3-5.3c-4.3-1.5-8-2.7-11.2-3.6c-3.1-0.9-5.6-1.6-7.2-2
			c-0.8-0.2-1.5-0.4-1.9-0.5c-0.4-0.1-0.6-0.1-0.6-0.1l-0.1,0c-2.5-0.6-4-3-3.5-5.5c0.6-2.5,3-4,5.5-3.5c0,0,0.1,0,0.2,0
			c0,0,0.3,0.1,0.7,0.2c0.5,0.1,1.1,0.3,2,0.6c1.8,0.5,4.3,1.3,7.5,2.4c3.2,1.1,7,2.4,11.4,4.1c4.4,1.7,9.2,3.7,14.4,6
			c5.2,2.4,10.8,5,16.6,8c2.9,1.5,5.9,3.1,8.9,4.8c1.5,0.8,3,1.7,4.5,2.6c1.5,0.9,3.1,1.7,4.6,2.7c3,1.9,6.2,3.7,9.2,5.7
			c1.5,1,3.1,2,4.6,3c1.5,1.1,3.1,2.1,4.6,3.2c3.1,2.1,6.1,4.4,9.2,6.6c3,2.3,6,4.6,9,7l4.4,3.6c1.5,1.2,2.9,2.4,4.3,3.7
			c1.4,1.3,2.8,2.5,4.2,3.8l2.1,1.9l2,1.9c2.7,2.6,5.4,5.1,7.9,7.8c2.6,2.6,5.1,5.2,7.5,7.8c2.4,2.6,4.8,5.2,6.9,7.8
			c1.1,1.3,2.2,2.6,3.3,3.9c0.5,0.6,1.1,1.3,1.6,1.9c0.5,0.7,1,1.3,1.5,1.9c2,2.6,4,5.1,5.8,7.5c1.8,2.5,3.5,4.9,5.1,7.2
			c0.8,1.1,1.6,2.3,2.3,3.5c0.7,1.1,1.5,2.3,2.2,3.3c1.4,2.2,2.8,4.2,3.9,6.2c1.2,2,2.3,3.8,3.3,5.6c1,1.7,2,3.3,2.7,4.8
			C582.2,306.8,583.9,310.1,583.9,310.1z"/>
		<path fill="#58C3B9" d="M729.6,402c0,0-1.4-2.1-3.7-5.8c-1.2-1.8-2.7-3.8-4.4-6.1c-0.9-1.2-1.9-2.4-2.9-3.7c-0.5-0.6-1-1.3-1.6-2
			c-0.6-0.7-1.2-1.3-1.8-2c-0.6-0.7-1.2-1.4-1.8-2.1c-0.3-0.4-0.6-0.7-0.9-1.1c-0.3-0.3-0.7-0.7-1-1.1c-1.4-1.4-2.8-2.9-4.3-4.4
			c-1.5-1.4-3.1-2.9-4.7-4.4c-1.7-1.4-3.4-2.9-5.1-4.4c-1.8-1.4-3.6-2.9-5.5-4.4c-1.9-1.4-3.8-2.9-5.8-4.2c-4-2.8-8.1-5.5-12.3-8
			l-3.2-1.9c-1.1-0.6-2.2-1.2-3.2-1.8c-2.1-1.2-4.3-2.3-6.5-3.4c-2.2-1.1-4.4-2.1-6.5-3.1c-2.2-1-4.3-2-6.5-2.9
			c-1.1-0.5-2.1-0.9-3.2-1.3c-1.1-0.4-2.1-0.8-3.1-1.2c-2.1-0.8-4.1-1.6-6.1-2.3c-4-1.4-7.8-2.7-11.4-3.8
			c-7.1-2.2-13.2-3.7-17.4-4.6c-4.3-0.9-6.7-1.3-6.7-1.3s2.5,0.2,6.8,0.9c4.3,0.7,10.4,1.8,17.7,3.6c3.6,0.9,7.6,1.9,11.7,3.2
			c2.1,0.6,4.2,1.3,6.3,2c1.1,0.4,2.2,0.7,3.3,1.1c1.1,0.4,2.2,0.8,3.3,1.2c2.2,0.8,4.4,1.7,6.7,2.5c2.2,0.9,4.5,1.8,6.8,2.8
			c2.3,1,4.6,2,6.8,3.1c1.1,0.5,2.3,1.1,3.4,1.6l3.4,1.7c4.5,2.3,8.9,4.8,13.1,7.4c2.1,1.3,4.2,2.7,6.2,4c2,1.4,4,2.8,5.9,4.2
			c1.9,1.5,3.7,2.9,5.6,4.3c1.8,1.5,3.5,2.9,5.2,4.3c1.6,1.4,3.2,2.9,4.7,4.3c0.4,0.4,0.8,0.7,1.1,1c0.4,0.4,0.7,0.7,1.1,1.1
			c0.7,0.7,1.4,1.4,2.1,2.1c0.7,0.7,1.3,1.3,2,2c0.6,0.7,1.2,1.3,1.8,2c1.2,1.3,2.3,2.5,3.3,3.7c2,2.5,3.8,4.6,5.1,6.4
			c2.6,3.5,4,5.5,4,5.5c1.5,2,1,4.9-1,6.4c-2,1.5-4.9,1-6.4-1C729.7,402.1,729.7,402,729.6,402z"/>
		<path fill="#58C3B9" d="M505.1,447.1c0,0,0.9-2,2.4-5.6c0.8-1.8,1.7-4,2.8-6.5c0.5-1.2,1.1-2.6,1.7-4c0.7-1.4,1.3-2.9,2.1-4.4
			c1.4-3.1,3-6.4,4.7-9.9c1.7-3.5,3.6-7,5.6-10.8c1.9-3.8,4.1-7.5,6.3-11.3c0.5-1,1.1-1.9,1.6-2.9l0.8-1.4l0.9-1.4
			c1.2-1.9,2.4-3.8,3.5-5.7c2.3-3.8,4.9-7.5,7.4-11.2c0.6-0.9,1.2-1.8,1.9-2.7c0.6-0.9,1.3-1.8,1.9-2.6c1.3-1.7,2.5-3.5,3.8-5.1
			c1.3-1.6,2.6-3.3,3.9-4.8c0.6-0.8,1.3-1.6,1.9-2.3c0.6-0.8,1.3-1.5,1.9-2.2c1.3-1.5,2.5-2.9,3.7-4.2c1.2-1.3,2.4-2.6,3.6-3.8
			c0.6-0.6,1.1-1.2,1.7-1.8c0.6-0.6,1.1-1.1,1.7-1.7c1.1-1.1,2.1-2.1,3.1-3c1-0.9,1.9-1.8,2.8-2.6c0.9-0.8,1.7-1.5,2.5-2.1
			c0.7-0.6,1.4-1.2,2-1.6c0.6-0.5,1.1-0.9,1.5-1.2c0.8-0.6,1.3-0.9,1.3-0.9s-0.4,0.3-1.2,1c-0.4,0.3-0.9,0.8-1.4,1.3
			c-0.6,0.5-1.2,1.1-1.9,1.8c-0.7,0.7-1.5,1.4-2.3,2.2c-0.8,0.8-1.7,1.8-2.6,2.7c-0.9,1-1.9,2.1-2.9,3.2c-0.5,0.6-1,1.1-1.6,1.7
			c-0.5,0.6-1,1.2-1.6,1.9c-1.1,1.3-2.2,2.6-3.3,4c-1.1,1.4-2.2,2.9-3.4,4.4c-0.6,0.8-1.2,1.5-1.7,2.3c-0.6,0.8-1.1,1.6-1.7,2.4
			c-1.1,1.6-2.3,3.3-3.5,5c-1.1,1.7-2.3,3.5-3.4,5.3c-0.6,0.9-1.2,1.8-1.7,2.7c-0.6,0.9-1.1,1.9-1.7,2.8c-2.2,3.8-4.5,7.5-6.5,11.5
			c-1,1.9-2.1,3.9-3.1,5.8l-0.8,1.5l-0.7,1.5c-0.5,1-1,2-1.4,2.9c-1.9,3.9-3.9,7.7-5.5,11.5c-1.7,3.8-3.3,7.4-4.8,10.9
			c-1.4,3.5-2.7,6.8-3.9,9.9c-0.6,1.5-1.2,3-1.7,4.4c-0.5,1.4-1,2.8-1.4,4.1c-0.9,2.6-1.7,4.8-2.3,6.6c-1.3,3.7-2,5.8-2,5.8
			c-0.8,2.4-3.5,3.6-5.8,2.8c-2.4-0.8-3.6-3.5-2.8-5.8C505.1,447.3,505.1,447.2,505.1,447.1z"/>
		<path fill="#58C3B9" d="M740.8,168.6c0,0-0.7,0.3-1.9,0.8c-0.6,0.3-1.4,0.6-2.3,1c-0.9,0.4-2,0.8-3.1,1.3c-2.2,1.1-4.8,2.3-7.9,4
			c-3.1,1.6-6.4,3.7-10,6c-1.8,1.2-3.6,2.4-5.6,3.7c-1.9,1.4-3.8,2.8-5.8,4.2c-1.9,1.5-4,3.1-6,4.7c-2,1.7-4.1,3.3-6.1,5.1
			c-4.1,3.5-8.3,7.3-12.4,11.2c-2.1,2-4.1,4-6.2,6c-1,1-2,2.1-3.1,3.1l-3,3.1c-4,4.2-7.9,8.5-11.7,12.8c-3.8,4.3-7.4,8.6-10.9,12.8
			c-3.5,4.2-6.8,8.3-9.8,12.3c-3.1,4-5.9,7.7-8.5,11.3c-10.4,14.1-16.6,24-16.6,24s5.7-10.2,15.4-24.8c2.4-3.7,5.1-7.6,8-11.7
			c2.9-4.1,6-8.4,9.2-12.8c3.3-4.4,6.7-8.9,10.3-13.4c3.6-4.5,7.3-9,11.2-13.5l2.9-3.3c1-1.1,2-2.2,2.9-3.3c1.9-2.2,3.9-4.3,5.9-6.4
			c4-4.2,8-8.2,12-12.1c2-1.9,4-3.7,6-5.5c2-1.7,4-3.5,5.9-5.1c2-1.6,3.9-3.2,5.8-4.7c1.9-1.5,3.8-2.8,5.6-4.2
			c3.7-2.6,7-4.9,10.2-6.8c3.1-2,6-3.5,8.3-4.8c1.2-0.7,2.2-1.1,3.1-1.6c0.9-0.4,1.7-0.8,2.3-1.1c1.2-0.6,1.9-0.9,1.9-0.9
			c2.3-1.1,5-0.1,6.1,2.2c1.1,2.3,0.1,5-2.2,6.1C740.9,168.5,740.8,168.5,740.8,168.6L740.8,168.6z"/>
		<path fill="#58C3B9" d="M703.6,135.7c0,0-1.1,1-3.1,2.7c-0.5,0.4-1.1,0.9-1.7,1.4c-0.6,0.5-1.3,1.1-1.9,1.7
			c-1.3,1.2-2.7,2.6-4.3,4.1c-1.6,1.5-3.2,3.3-5,5.1c-0.4,0.5-0.9,0.9-1.3,1.4c-0.4,0.5-0.9,1-1.3,1.5c-0.9,1-1.8,2-2.7,3.1
			c-0.9,1-1.8,2.1-2.7,3.2c-0.9,1.1-1.8,2.2-2.8,3.3c-1.9,2.3-3.6,4.6-5.5,7c-1.8,2.4-3.6,4.8-5.3,7.2c-1.7,2.4-3.4,4.7-4.9,7.1
			c-0.8,1.2-1.6,2.3-2.3,3.4c-0.7,1.1-1.5,2.2-2.2,3.3c-1.4,2.1-2.7,4.2-3.9,6.1c-4.7,7.6-7.6,12.9-7.6,12.9s2.4-5.5,6.4-13.6
			c1-2,2.1-4.2,3.3-6.5c0.6-1.1,1.2-2.3,1.8-3.5c0.7-1.2,1.3-2.4,2-3.7c1.3-2.5,2.8-5,4.3-7.6c1.5-2.6,3.1-5.1,4.6-7.7
			c1.6-2.5,3.2-5.1,4.9-7.6c0.8-1.2,1.7-2.5,2.5-3.7c0.8-1.2,1.6-2.4,2.5-3.6c0.8-1.2,1.7-2.3,2.5-3.4c0.4-0.6,0.8-1.1,1.2-1.6
			c0.4-0.5,0.8-1.1,1.2-1.6c1.6-2.1,3.1-4,4.6-5.8c1.5-1.8,2.9-3.4,4.2-4.8c0.6-0.7,1.2-1.3,1.8-1.9c0.6-0.6,1.1-1.1,1.5-1.6
			c1.8-1.9,2.9-3,2.9-3c1.8-1.8,4.7-1.9,6.5-0.1c1.8,1.8,1.9,4.7,0.1,6.5C703.8,135.5,703.7,135.6,703.6,135.7L703.6,135.7z"/>
		<path fill="#58C3B9" d="M583.3,81.9c0,0,0.7,2.8,1.9,7.7c0.3,1.2,0.6,2.6,1,4.1c0.2,0.7,0.4,1.5,0.6,2.3c0.2,0.8,0.3,1.7,0.5,2.5
			c0.7,3.5,1.4,7.5,2.3,11.8c0.7,4.3,1.4,9,2.2,13.9c0.4,2.5,0.7,5,1,7.6c0.3,2.6,0.6,5.3,0.9,8c0.4,2.7,0.6,5.4,0.8,8.2
			c0.3,2.8,0.5,5.6,0.8,8.4c0.5,5.7,0.8,11.5,1.2,17.2c0.2,5.8,0.6,11.5,0.7,17.2c0.1,5.7,0.4,11.3,0.4,16.7c0,2.7,0.1,5.4,0.1,8
			c0,2.6,0,5.2,0,7.6c0,5-0.1,9.6-0.2,14c-0.2,8.6-0.4,15.9-0.7,20.9c-0.2,5-0.4,7.9-0.4,7.9s0.1-2.9,0-7.9c0-5-0.1-12.2-0.4-20.9
			c-0.2-4.3-0.3-9-0.5-13.9c-0.1-2.5-0.2-5-0.4-7.6c-0.2-2.6-0.3-5.2-0.5-7.9c-0.3-5.4-0.8-10.9-1.2-16.6
			c-0.4-5.6-1.1-11.4-1.6-17.1c-0.7-5.7-1.3-11.4-2-17c-0.4-2.8-0.8-5.6-1.2-8.3c-0.4-2.7-0.7-5.4-1.2-8.1c-0.4-2.6-0.9-5.2-1.3-7.8
			c-0.4-2.5-0.8-5-1.3-7.4c-1-4.8-1.9-9.4-2.8-13.5c-1-4.1-1.9-7.9-2.7-11.2c-0.2-0.8-0.4-1.6-0.6-2.4c-0.2-0.8-0.5-1.5-0.7-2.3
			c-0.4-1.5-0.8-2.8-1.2-4c-1.4-4.8-2.2-7.6-2.2-7.6l0,0c-0.7-2.4,0.7-5,3.1-5.7c2.4-0.7,5,0.7,5.7,3.1
			C583.3,81.7,583.3,81.8,583.3,81.9z"/>
		<path fill="#58C3B9" d="M631,83c0,0-0.1,2.1-0.1,5.9c0,1.9-0.1,4.1-0.2,6.7c0,2.6-0.3,5.6-0.4,8.8c-0.2,3.2-0.3,6.8-0.7,10.4
			c-0.3,3.7-0.6,7.6-1,11.6c-0.5,4-0.9,8.2-1.4,12.4c-0.3,2.1-0.6,4.2-0.9,6.3c-0.3,2.1-0.6,4.3-0.9,6.4c-0.7,4.2-1.3,8.5-2.1,12.6
			c-0.4,2.1-0.8,4.1-1.1,6.2c-0.4,2-0.8,4-1.2,6c-0.8,3.9-1.7,7.7-2.5,11.3c-0.9,3.6-1.7,7-2.5,10.1c-0.8,3.1-1.6,6-2.3,8.5
			c-0.7,2.5-1.4,4.7-1.9,6.5c-1.1,3.6-1.8,5.6-1.8,5.6s0.6-2.1,1.4-5.7c0.4-1.8,0.9-4,1.5-6.6c0.6-2.5,1.1-5.4,1.7-8.6
			c0.6-3.1,1.2-6.6,1.8-10.2c0.6-3.6,1.2-7.4,1.7-11.4c0.3-2,0.5-4,0.8-6c0.2-2,0.5-4.1,0.7-6.2c0.5-4.2,0.8-8.4,1.2-12.6
			c0.2-2.1,0.3-4.2,0.5-6.4c0.1-2.1,0.3-4.2,0.4-6.3c0.3-4.2,0.4-8.3,0.6-12.3c0.2-4,0.2-7.8,0.2-11.5c0.1-3.7,0-7.1,0-10.2
			c0-1.6,0-3.1-0.1-4.5c0-1.4,0-2.8-0.1-4.1c-0.1-2.6-0.2-4.9-0.3-6.7c-0.2-3.7-0.2-5.9-0.2-5.9c-0.1-2.5,1.9-4.7,4.4-4.8
			c2.5-0.1,4.7,1.9,4.8,4.4C631,82.8,631,82.9,631,83z"/>
		<path fill="#58C3B9" d="M521.5,143.1c0,0,0.8,1,2.3,2.8c0.7,0.9,1.6,2,2.6,3.3c0.3,0.3,0.5,0.6,0.8,1c0.3,0.4,0.5,0.7,0.8,1.1
			c0.6,0.8,1.1,1.5,1.7,2.4c1.2,1.7,2.6,3.4,3.8,5.3c1.3,1.9,2.7,3.9,4,6.1c1.3,2.2,2.7,4.3,4,6.6c1.3,2.3,2.6,4.6,3.9,7
			c1.2,2.4,2.5,4.7,3.6,7.1c0.6,1.2,1.1,2.4,1.7,3.5c0.5,1.2,1,2.3,1.5,3.5c1,2.3,1.9,4.5,2.7,6.7c0.8,2.1,1.5,4.2,2.2,6.1
			c0.6,1.9,1.2,3.6,1.6,5.2c0.5,1.5,0.8,2.9,1.1,4c0.6,2.2,0.8,3.5,0.8,3.5s-0.4-1.3-1.2-3.4c-0.4-1.1-0.9-2.4-1.6-3.9
			c-0.6-1.5-1.4-3.1-2.2-4.9c-0.8-1.8-1.8-3.7-2.8-5.7c-1.1-2-2.1-4.1-3.4-6.3c-0.6-1.1-1.2-2.2-1.8-3.3c-0.7-1.1-1.3-2.2-2-3.3
			c-1.3-2.2-2.8-4.4-4.2-6.6c-1.4-2.2-3-4.3-4.5-6.4c-1.5-2.1-3.1-4-4.6-6c-1.5-1.9-3.1-3.7-4.5-5.4c-1.4-1.7-2.9-3.2-4.1-4.7
			c-0.6-0.7-1.3-1.4-1.9-2c-0.3-0.3-0.6-0.6-0.9-0.9c-0.3-0.3-0.6-0.6-0.9-0.9c-1.1-1.1-2.1-2.1-2.9-3c-1.6-1.6-2.6-2.6-2.6-2.6
			c-1.8-1.8-1.8-4.7,0-6.5c1.8-1.8,4.7-1.8,6.5,0C521.3,142.8,521.4,143,521.5,143.1z"/>
		<path fill="#58C3B9" d="M409.1,225.7c0,0,0.6,0,1.7,0.1c1.1,0.1,2.7,0.2,4.8,0.4c1.1,0.1,2.3,0.3,3.6,0.5c0.6,0.1,1.3,0.2,2,0.3
			c0.7,0.1,1.4,0.2,2.1,0.4c1.5,0.3,3,0.5,4.7,0.8c1.6,0.3,3.3,0.7,5.1,1.1c1.8,0.4,3.6,0.9,5.5,1.3c1.9,0.5,3.8,1,5.8,1.6
			c4,1.1,8.2,2.4,12.4,3.9c2.1,0.7,4.3,1.5,6.5,2.3c2.2,0.8,4.3,1.7,6.6,2.5c2.2,0.9,4.4,1.8,6.6,2.7c2.2,1,4.4,1.9,6.6,2.9
			c2.2,1,4.4,1.9,6.5,3c2.2,1,4.3,2,6.4,3.1c4.2,2.1,8.3,4.2,12.3,6.2c7.9,4.2,15.1,8.3,21.3,12c12.3,7.3,20.1,12.7,20.1,12.7
			s-8.1-4.9-20.8-11.5c-6.3-3.3-13.8-6.9-21.9-10.6c-4.1-1.8-8.2-3.7-12.5-5.4c-2.1-0.9-4.3-1.8-6.5-2.6c-2.2-0.9-4.4-1.7-6.6-2.5
			c-2.2-0.9-4.4-1.6-6.6-2.4c-2.2-0.8-4.4-1.5-6.6-2.3c-2.2-0.7-4.4-1.4-6.6-2.1c-2.2-0.6-4.3-1.3-6.4-1.9
			c-4.2-1.2-8.4-2.2-12.3-3.1c-2-0.4-3.9-0.8-5.7-1.2c-1.9-0.3-3.6-0.6-5.4-1c-1.7-0.3-3.4-0.5-4.9-0.7c-1.6-0.2-3.1-0.3-4.5-0.5
			c-0.7-0.1-1.4-0.1-2-0.2c-0.6,0-1.3-0.1-1.9-0.1c-1.2-0.1-2.3-0.2-3.3-0.2c-2-0.1-3.7-0.1-4.8-0.1c-1.1,0-1.7,0-1.7,0
			c-2.5-0.1-4.5-2.1-4.5-4.7c0.1-2.5,2.1-4.5,4.7-4.5C408.9,225.7,409,225.7,409.1,225.7z"/>
		<path fill="#58C3B9" d="M365.7,283.3c0,0,1.8-0.2,5-0.5c0.8-0.1,1.7-0.2,2.6-0.2c1-0.1,2-0.1,3.2-0.2c2.3-0.1,4.8-0.3,7.6-0.3
			c2.7,0,5.7-0.1,8.9-0.1c3.1,0,6.5,0,9.9,0.1c3.4,0.1,6.9,0.1,10.5,0.3c3.6,0.2,7.2,0.3,10.8,0.5c3.6,0.2,7.3,0.4,10.8,0.7
			c3.6,0.2,7.1,0.5,10.5,0.8c3.4,0.2,6.7,0.6,9.8,0.8c3.1,0.3,6,0.6,8.7,0.8c10.8,1.1,18,2,18,2s-7.2-0.3-18.1-0.5
			c-2.7,0-5.7-0.1-8.8-0.1c-3.1,0-6.4-0.1-9.8,0c-3.4,0-6.9,0-10.5,0.1c-3.6,0-7.2,0.1-10.8,0.2c-3.6,0.1-7.2,0.2-10.8,0.4
			c-3.5,0.1-7,0.4-10.4,0.5c-3.4,0.2-6.6,0.5-9.7,0.7c-3.1,0.2-6,0.6-8.6,0.8c-2.7,0.3-5,0.6-7.2,0.9c-1.1,0.1-2,0.3-3,0.4
			c-0.9,0.2-1.8,0.3-2.6,0.4c-3.1,0.5-4.9,0.8-4.9,0.8l0,0c-2.5,0.4-4.9-1.2-5.3-3.7c-0.4-2.5,1.2-4.9,3.7-5.3
			C365.5,283.3,365.6,283.3,365.7,283.3z"/>
		<path fill="#58C3B9" d="M415.7,404.3c0,0,1.5-1.4,4.2-3.8c1.3-1.2,2.9-2.7,4.8-4.4c2-1.6,4.2-3.5,6.7-5.5c1.2-1,2.5-2.1,3.9-3.1
			c1.4-1,2.8-2,4.2-3.1c1.4-1.1,2.9-2.1,4.5-3.2c1.5-1.1,3.2-2.1,4.8-3.2c1.6-1.1,3.3-2.2,5-3.2c1.7-1.1,3.5-2.1,5.2-3.1
			c1.8-1,3.5-2.1,5.3-3.1c1.8-1,3.6-2,5.4-3c3.6-2,7.3-3.8,11-5.6c1.8-0.9,3.6-1.8,5.5-2.6c1.8-0.8,3.6-1.7,5.3-2.5
			c1.8-0.8,3.5-1.5,5.2-2.2c1.7-0.7,3.4-1.4,5-2.1c1.6-0.6,3.2-1.3,4.8-1.9c1.6-0.6,3.1-1.1,4.5-1.7c2.9-1.1,5.6-2,7.9-2.8
			c2.4-0.8,4.5-1.5,6.2-2c3.4-1.1,5.4-1.6,5.4-1.6s-1.9,0.6-5.3,1.9c-1.7,0.6-3.7,1.5-6,2.4c-2.3,1-4.9,2-7.7,3.3
			c-1.4,0.6-2.9,1.3-4.4,2c-1.5,0.7-3,1.5-4.6,2.2c-1.6,0.7-3.2,1.6-4.8,2.4c-1.6,0.8-3.3,1.7-5,2.6c-1.7,0.9-3.4,1.9-5.1,2.8
			c-1.7,0.9-3.5,1.9-5.2,2.9c-3.5,2.1-7,4.1-10.4,6.3c-1.7,1.1-3.4,2.2-5.1,3.3c-1.7,1.1-3.3,2.3-5,3.4c-1.6,1.1-3.3,2.3-4.9,3.4
			c-1.6,1.2-3.1,2.4-4.6,3.5c-1.5,1.2-3,2.3-4.4,3.4c-1.4,1.2-2.8,2.3-4.1,3.4c-1.3,1.1-2.6,2.2-3.9,3.2c-1.3,1-2.3,2.2-3.5,3.2
			c-2.2,2-4.2,3.9-6,5.6c-1.7,1.8-3.2,3.4-4.5,4.7c-2.5,2.6-3.9,4.1-3.9,4.1c-1.7,1.8-4.6,1.9-6.5,0.2c-1.8-1.7-1.9-4.6-0.2-6.5
			C415.5,404.5,415.6,404.4,415.7,404.3z"/>
		<path fill="#58C3B9" d="M458.4,330.9c0,0,6.2-0.7,15.4-1.8c1.2-0.1,2.4-0.3,3.6-0.4c1.3-0.1,2.6-0.2,3.9-0.4
			c2.7-0.2,5.5-0.5,8.4-0.8c2.9-0.3,5.9-0.5,9-0.7c3.1-0.2,6.2-0.4,9.3-0.6c3.1-0.2,6.2-0.4,9.3-0.5c3.1-0.1,6.1-0.3,9-0.4
			c2.9-0.1,5.7-0.2,8.4-0.2c2.7-0.1,5.2-0.1,7.5-0.2c4.7-0.1,8.5-0.1,11.2-0.1c2.7,0,4.3,0,4.3,0s-1.5,0.1-4.2,0.4
			c-2.7,0.2-6.6,0.6-11.2,1.1c-2.3,0.2-4.8,0.5-7.5,0.8c-2.6,0.3-5.4,0.7-8.3,1c-2.9,0.4-5.8,0.8-8.9,1.2c-3,0.4-6.1,0.8-9.1,1.3
			c-3.1,0.5-6.1,1-9.1,1.4c-3,0.4-5.9,1-8.8,1.5c-2.8,0.5-5.6,1-8.2,1.5c-1.3,0.2-2.6,0.5-3.8,0.7c-1.2,0.2-2.4,0.5-3.5,0.7
			c-9.1,2-15.2,3.3-15.2,3.3l0,0c-2.5,0.5-4.9-1-5.4-3.5c-0.5-2.5,1-4.9,3.5-5.4C458.1,330.9,458.2,330.9,458.4,330.9z"/>
		<path fill="#58C3B9" d="M563.4,459c0,0,0-1.7,0-4.7c0-0.8,0-1.6,0-2.5c0-0.5,0-0.9,0-1.4c0-0.5,0.1-1,0.1-1.6
			c0.1-2.2,0.3-4.6,0.4-7.3c0.2-2.6,0.6-5.5,0.9-8.5c0.4-3,0.9-6.1,1.3-9.3c0.5-3.2,1.2-6.5,1.8-9.9c0.7-3.3,1.4-6.7,2.2-10.1
			c0.8-3.4,1.6-6.7,2.5-10c0.9-3.3,1.7-6.5,2.7-9.6c0.9-3.1,1.8-6.1,2.7-8.9c0.9-2.8,1.8-5.5,2.5-8c1.6-4.9,3.1-9,4.1-11.8
			c1-2.8,1.7-4.4,1.7-4.4s-0.5,1.6-1.3,4.6c-0.8,2.9-1.9,7.1-3.1,12.1c-0.6,2.5-1.3,5.2-1.9,8.1c-0.6,2.9-1.3,5.9-1.9,9.1
			c-0.7,3.1-1.2,6.4-1.8,9.7c-0.6,3.3-1.1,6.7-1.6,10.1c-0.5,3.4-0.9,6.8-1.3,10.1c-0.3,3.3-0.7,6.6-0.9,9.8
			c-0.2,3.2-0.5,6.2-0.5,9.2c-0.1,2.9-0.1,5.7-0.2,8.2c0.1,2.5,0.1,4.7,0.2,6.8c0,0.5,0,1,0,1.5c0,0.5,0.1,1,0.1,1.4
			c0.1,0.9,0.2,1.7,0.2,2.5c0.3,3,0.4,4.7,0.4,4.7l0,0c0.2,2.5-1.6,4.7-4.2,5c-2.5,0.2-4.7-1.6-5-4.2
			C563.4,459.3,563.4,459.2,563.4,459z"/>
		<path fill="#58C3B9" d="M584.9,427.3c0,0,0-1-0.1-2.7c0-0.8-0.1-1.9-0.1-3.1c0-1.2-0.1-2.5-0.1-4c0-1.5,0.1-3.1,0.1-4.8
			c0.1-1.7,0.1-3.5,0.2-5.4c0.1-1.8,0.3-3.7,0.4-5.6c0.1-1.9,0.2-3.9,0.4-5.8c0.2-1.9,0.4-3.9,0.5-5.8c0.2-1.9,0.4-3.8,0.6-5.6
			c0.4-3.6,0.8-7,1.2-9.9c0.4-2.9,0.7-5.3,0.9-7c0.2-1.7,0.4-2.6,0.4-2.6s0,1,0,2.7c0,1.7,0,4.1,0.1,7c0,2.9,0.1,6.3,0.3,9.9
			c0.1,1.8,0.1,3.7,0.2,5.6c0.1,1.9,0.2,3.8,0.3,5.7c0.1,1.9,0.3,3.8,0.4,5.7c0.2,1.9,0.3,3.7,0.4,5.5c0.2,1.8,0.4,3.5,0.6,5.1
			c0.2,1.6,0.4,3.1,0.5,4.5c0.2,1.4,0.5,2.7,0.7,3.9c0.2,1.2,0.4,2.2,0.5,3c0.3,1.7,0.5,2.6,0.5,2.6l0,0c0.4,2.5-1.2,4.9-3.7,5.3
			c-2.5,0.4-4.9-1.2-5.3-3.7C584.9,427.8,584.9,427.5,584.9,427.3z"/>
		<path fill="#58C3B9" d="M769.7,292.2c0,0-1.5-0.5-4.1-1.3c-1.3-0.4-2.9-0.9-4.7-1.5c-0.9-0.3-1.8-0.5-2.8-0.8
			c-1-0.3-2-0.5-3.1-0.8c-1.1-0.3-2.2-0.6-3.4-0.9c-1.2-0.3-2.4-0.5-3.7-0.8c-1.3-0.3-2.6-0.5-4-0.8c-0.7-0.1-1.4-0.3-2-0.4
			c-0.7-0.1-1.4-0.2-2.1-0.3c-1.4-0.2-2.9-0.4-4.3-0.6c-0.7-0.1-1.5-0.2-2.2-0.3c-0.7-0.1-1.5-0.2-2.2-0.2c-3-0.3-6-0.7-9.1-0.8
			c-1.5-0.1-3.1-0.2-4.6-0.3c-1.5-0.1-3.1-0.1-4.6-0.1c-1.5,0-3-0.1-4.5-0.1c-1.5,0-3,0.1-4.4,0.1c-1.4,0-2.9,0.1-4.3,0.2
			c-1.4,0.1-2.8,0.1-4.1,0.2c-2.6,0.2-5.2,0.4-7.4,0.7c-1.2,0.1-2.3,0.3-3.3,0.4c-1,0.2-2,0.3-3,0.4c-1.9,0.3-3.5,0.6-4.8,0.8
			c-2.7,0.5-4.2,0.9-4.2,0.9s1.5-0.5,4.1-1.3c1.3-0.4,2.9-0.8,4.7-1.2c0.9-0.2,1.9-0.5,2.9-0.7c1-0.2,2.1-0.5,3.3-0.7
			c2.3-0.5,4.8-0.9,7.4-1.4c1.3-0.2,2.7-0.4,4.1-0.6c1.4-0.2,2.8-0.4,4.3-0.6c1.5-0.2,2.9-0.3,4.4-0.5c1.5-0.2,3-0.2,4.6-0.4
			c1.5-0.1,3.1-0.3,4.6-0.3c1.6-0.1,3.1-0.1,4.7-0.2c3.1-0.2,6.3,0,9.4,0c0.8,0,1.5,0,2.3,0c0.8,0,1.5,0.1,2.3,0.1
			c1.5,0.1,3,0.2,4.5,0.2c0.7,0,1.5,0.1,2.2,0.1c0.7,0.1,1.4,0.1,2.1,0.2c1.4,0.1,2.8,0.3,4.2,0.4c1.4,0.2,2.7,0.2,3.9,0.5
			c1.3,0.2,2.5,0.4,3.7,0.6c1.2,0.2,2.3,0.4,3.4,0.5c1.1,0.2,2.1,0.3,3,0.5c1.8,0.4,3.5,0.7,4.8,1c2.7,0.6,4.2,0.9,4.2,0.9
			c2.5,0.5,4,3,3.5,5.4s-3,4-5.4,3.5C770,292.3,769.9,292.3,769.7,292.2z"/>
		<path fill="#58C3B9" d="M732,307c0,0-1-0.4-2.8-1.2c-0.9-0.4-2-0.8-3.3-1.3c-1.2-0.4-2.6-0.9-4.1-1.4c-1.5-0.6-3.2-1-5-1.5
			c-0.9-0.3-1.8-0.5-2.8-0.8c-1-0.2-1.9-0.5-2.9-0.7c-1-0.2-2-0.5-3-0.7c-1-0.2-2.1-0.4-3.1-0.6c-1.1-0.2-2.1-0.4-3.2-0.6
			c-1.1-0.2-2.2-0.3-3.3-0.5c-2.2-0.4-4.4-0.6-6.5-0.8c-2.2-0.2-4.3-0.4-6.4-0.6c-2.1-0.1-4.1-0.3-6-0.3c-1.9-0.1-3.7-0.1-5.4-0.1
			c-1.7,0-3.2,0-4.6,0c-1.4,0-2.5,0.1-3.5,0.1c-2,0.1-3.1,0.2-3.1,0.2s1.1-0.2,3-0.6c1-0.2,2.1-0.3,3.5-0.5c1.4-0.2,2.9-0.4,4.5-0.6
			c1.7-0.2,3.5-0.4,5.4-0.6c1.9-0.2,4-0.3,6.1-0.4c2.1-0.1,4.3-0.2,6.5-0.2c2.2,0,4.5-0.1,6.7,0c1.1,0,2.3,0.1,3.4,0.1
			c1.1,0,2.3,0.1,3.4,0.2c1.1,0.1,2.2,0.1,3.3,0.2c1.1,0.1,2.2,0.2,3.2,0.3c1.1,0.1,2.1,0.2,3.1,0.3c1,0.2,2,0.3,3,0.4
			c1.9,0.3,3.8,0.5,5.5,0.9c1.7,0.4,3.3,0.7,4.7,1c1.3,0.3,2.5,0.6,3.4,0.9c1.9,0.5,3,0.8,3,0.8c2.4,0.6,3.9,3.1,3.3,5.6
			c-0.6,2.4-3.2,3.9-5.6,3.3C732.3,307.2,732.2,307.1,732,307L732,307z"/>
		<path fill="#58C3B9" d="M567.7,107.7c0,0,0.9,3.7,2.3,9.2c0.2,0.7,0.4,1.4,0.5,2.2c0.2,0.8,0.3,1.5,0.5,2.4
			c0.4,1.6,0.7,3.3,1.1,5.1c0.4,1.8,0.8,3.6,1.1,5.4c0.4,1.8,0.7,3.7,1.1,5.6c0.2,0.9,0.4,1.9,0.5,2.8c0.2,0.9,0.3,1.9,0.5,2.8
			c0.3,1.8,0.6,3.7,0.9,5.4c0.3,1.8,0.5,3.5,0.8,5.1c0.2,1.6,0.5,3.1,0.7,4.6c0.8,5.7,1.2,9.4,1.2,9.4s-1-3.7-2.6-9.1
			c-0.4-1.4-0.9-2.8-1.3-4.4c-0.5-1.6-1-3.2-1.5-4.9c-0.6-1.7-1.1-3.4-1.7-5.2c-0.3-0.9-0.6-1.8-0.9-2.7c-0.3-0.9-0.6-1.8-0.9-2.7
			c-0.6-1.8-1.3-3.6-1.9-5.3c-0.6-1.8-1.3-3.4-1.9-5.1c-0.6-1.6-1.2-3.2-1.8-4.7c-0.3-0.8-0.6-1.5-0.8-2.2c-0.3-0.7-0.6-1.4-0.9-2.1
			c-2.2-5.3-3.6-8.8-3.6-8.8c-1-2.3,0.1-5,2.5-6c2.3-1,5,0.1,6,2.5C567.6,107.2,567.6,107.4,567.7,107.7z"/>
		<path fill="#98D4C0" d="M512.3,89.6c0,0,0.7,0.6,1.8,1.6c1.1,1.1,2.7,2.6,4.6,4.7c1.9,2,4.1,4.6,6.5,7.6c2.4,3,5,6.4,7.8,10.3
			c2.7,3.8,5.5,8.1,8.3,12.7c2.8,4.6,5.6,9.5,8.3,14.7c2.7,5.2,5.3,10.6,7.9,16.2c2.5,5.6,4.8,11.3,7,17.1c1.1,2.9,2.2,5.8,3.1,8.7
			c0.5,1.5,1,2.9,1.5,4.4c0.5,1.5,0.9,2.9,1.4,4.4c0.9,2.9,1.8,5.8,2.6,8.7c0.8,2.9,1.6,5.7,2.3,8.5c0.7,2.8,1.4,5.6,2.1,8.3
			c0.6,2.7,1.2,5.4,1.8,8c0.5,2.6,1,5.1,1.5,7.6c0.2,1.2,0.5,2.4,0.7,3.6c0.2,1.2,0.4,2.4,0.6,3.5c0.4,2.3,0.8,4.5,1.1,6.5
			c0.3,2.1,0.6,4.1,0.9,5.9c0.5,3.7,1,7,1.3,9.6c0.6,5.4,1,8.4,1,8.4s-0.5-3-1.4-8.4c-0.4-2.7-1-5.9-1.7-9.6
			c-0.4-1.8-0.7-3.8-1.1-5.9c-0.4-2.1-0.9-4.2-1.4-6.5c-0.2-1.1-0.5-2.3-0.7-3.4c-0.3-1.2-0.6-2.3-0.9-3.6c-0.6-2.4-1.2-4.9-1.8-7.5
			c-0.7-2.5-1.4-5.2-2.1-7.8c-0.7-2.7-1.6-5.4-2.4-8.1c-0.8-2.8-1.8-5.5-2.7-8.3c-0.9-2.8-1.9-5.6-3-8.5c-0.5-1.4-1-2.8-1.6-4.3
			c-0.6-1.4-1.1-2.8-1.7-4.2c-1.1-2.8-2.3-5.7-3.5-8.5c-2.4-5.6-5-11.1-7.7-16.5c-2.7-5.3-5.5-10.6-8.4-15.5
			c-2.8-4.9-5.8-9.6-8.7-13.9c-2.9-4.3-5.8-8.3-8.6-11.9c-2.8-3.6-5.4-6.8-7.9-9.5c-2.4-2.7-4.6-5-6.5-6.9c-1.9-1.8-3.3-3.2-4.4-4.1
			c-1-0.9-1.5-1.2-1.5-1.3c-1.9-1.6-2.2-4.5-0.6-6.4C507.5,88.2,510.4,88,512.3,89.6z"/>
		<path fill="#98D4C0" d="M684.4,85.2c0,0-1.7,3.1-4.7,8.6c-1.5,2.7-3.3,6.1-5.4,9.9c-2,3.8-4.2,8.2-6.6,12.9
			c-1.2,2.4-2.5,4.8-3.8,7.4c-1.2,2.6-2.5,5.3-3.8,8c-2.6,5.5-5.5,11.3-8.1,17.4c-2.7,6.1-5.6,12.4-8.3,18.8
			c-1.4,3.2-2.7,6.5-4.1,9.7c-1.4,3.3-2.6,6.6-4,9.9c-1.3,3.3-2.6,6.6-3.9,9.9c-1.2,3.3-2.5,6.6-3.7,9.9c-2.5,6.5-4.7,13.1-7,19.4
			c-1.1,3.1-2.1,6.3-3.2,9.3c-1,3.1-2.1,6-3,8.9c-1.9,5.8-3.7,11.3-5.2,16.5c-1.6,5.1-3,9.8-4.2,14c-1.2,4.2-2.2,7.8-3,10.8
			c-1.6,6-2.5,9.5-2.5,9.5s0.7-3.5,2.1-9.6c0.7-3,1.6-6.7,2.6-11c1-4.2,2.2-9,3.6-14.2c1.3-5.2,2.9-10.8,4.5-16.7
			c0.8-3,1.7-6,2.6-9.1c0.9-3.1,1.8-6.3,2.8-9.5c2-6.4,4-13,6.2-19.7c1.1-3.3,2.2-6.7,3.3-10.1c1.2-3.4,2.4-6.7,3.5-10.1
			c1.2-3.4,2.3-6.8,3.6-10.1c1.3-3.3,2.5-6.7,3.7-10c2.4-6.6,5.1-13,7.5-19.3c2.4-6.3,5-12.2,7.5-17.9c1.2-2.8,2.4-5.6,3.5-8.2
			c1.2-2.6,2.4-5.2,3.5-7.6c2.3-4.9,4.3-9.4,6.2-13.4c1.9-3.9,3.6-7.3,5-10.1c2.8-5.6,4.4-8.8,4.4-8.8c1.1-2.3,3.9-3.2,6.1-2.1
			c2.3,1.1,3.2,3.9,2.1,6.1C684.5,85,684.5,85.1,684.4,85.2z"/>
		<path fill="#98D4C0" d="M620,302.7c0,0,2-2.4,5.4-6.6c1.7-2.1,3.9-4.5,6.5-7.4c0.6-0.7,1.3-1.4,2-2.2c0.7-0.7,1.4-1.5,2.2-2.2
			c1.5-1.5,3-3.1,4.7-4.8c1.6-1.7,3.4-3.3,5.3-5c0.9-0.9,1.8-1.7,2.8-2.6c1-0.9,2-1.7,3-2.6c4-3.6,8.4-7.1,13.1-10.7
			c1.2-0.9,2.4-1.7,3.6-2.6c1.2-0.9,2.4-1.8,3.7-2.6c1.3-0.8,2.5-1.7,3.8-2.6c1.3-0.9,2.5-1.7,3.9-2.5c1.3-0.8,2.6-1.6,3.9-2.4
			l2-1.2l2-1.2c2.7-1.5,5.4-3.1,8.2-4.5l4.2-2.2c1.4-0.7,2.8-1.3,4.2-2c2.8-1.4,5.7-2.6,8.5-3.8c1.4-0.6,2.9-1.2,4.3-1.7
			c1.4-0.6,2.8-1.1,4.3-1.7c2.9-1,5.7-2.1,8.5-2.9c1.4-0.4,2.8-0.9,4.2-1.3c1.4-0.4,2.8-0.8,4.1-1.2c0.7-0.2,1.4-0.4,2-0.6
			c0.7-0.2,1.4-0.3,2-0.5c1.3-0.3,2.7-0.7,4-1c5.3-1.2,10.3-2.3,15-3c4.7-0.8,9-1.3,12.9-1.6c3.9-0.4,7.2-0.6,10-0.6
			c2.8-0.1,5-0.1,6.5-0.1c0.8,0,1.4,0,1.8,0.1c0.4,0,0.7,0,0.7,0c2.5,0.1,4.5,2.3,4.3,4.8c-0.1,2.5-2.3,4.5-4.8,4.3
			c-0.1,0-0.1,0-0.2,0l-0.1,0c0,0-0.2,0-0.5,0c-0.3,0-0.9-0.1-1.5-0.1c-1.4-0.1-3.4-0.2-6.1-0.2c-2.6,0-5.8,0-9.5,0.2
			c-3.7,0.2-7.9,0.5-12.4,1c-4.5,0.5-9.4,1.3-14.6,2.2c-1.3,0.3-2.6,0.5-3.9,0.8c-0.7,0.1-1.3,0.3-2,0.4c-0.7,0.2-1.3,0.3-2,0.5
			c-1.3,0.3-2.7,0.6-4.1,1c-1.4,0.4-2.7,0.7-4.1,1.1c-2.8,0.7-5.6,1.6-8.4,2.5c-1.4,0.4-2.8,0.9-4.2,1.4c-1.4,0.5-2.9,0.9-4.3,1.5
			c-2.8,1.1-5.7,2.1-8.5,3.3c-1.4,0.6-2.8,1.2-4.2,1.8l-4.2,1.9c-2.8,1.2-5.5,2.7-8.3,4.1l-2,1l-2,1.1c-1.3,0.7-2.7,1.5-4,2.2
			c-1.3,0.7-2.6,1.5-3.9,2.3c-1.3,0.8-2.6,1.6-3.8,2.3c-1.3,0.8-2.5,1.6-3.7,2.4c-1.2,0.8-2.4,1.6-3.6,2.4
			c-4.8,3.3-9.3,6.6-13.4,9.9c-1,0.8-2.1,1.6-3.1,2.4c-1,0.8-1.9,1.7-2.9,2.5c-1.9,1.6-3.8,3.2-5.5,4.8c-1.7,1.6-3.3,3.1-4.9,4.6
			c-0.8,0.7-1.5,1.4-2.2,2.1c-0.7,0.7-1.4,1.4-2,2.1c-2.6,2.7-5,5-6.8,7.1C622.1,300.4,620,302.7,620,302.7z"/>
		<path fill="#98D4C0" d="M394.1,328.9c0,0,2.7-0.5,7.4-1.5c2.4-0.5,5.2-1,8.5-1.7c3.3-0.6,7.1-1.2,11.3-1.9
			c2.1-0.3,4.2-0.7,6.4-1.1c2.2-0.3,4.5-0.6,6.9-0.9c4.7-0.6,9.7-1.4,14.9-1.9c5.2-0.5,10.5-1.2,15.9-1.6c2.7-0.2,5.5-0.5,8.2-0.7
			c2.7-0.2,5.5-0.4,8.3-0.5c2.8-0.2,5.5-0.3,8.3-0.5c2.8-0.1,5.5-0.2,8.2-0.3c5.4-0.3,10.8-0.3,16-0.4c5.2-0.1,10.2-0.1,14.9-0.1
			c4.7,0.1,9.2,0.1,13.4,0.2c4.1,0.1,7.9,0.3,11.3,0.4c3.4,0.2,6.3,0.3,8.7,0.5c4.8,0.3,7.6,0.6,7.6,0.6s-2.8-0.1-7.6-0.2
			c-2.4,0-5.3,0-8.7,0c-3.4,0-7.1,0.1-11.3,0.2c-4.1,0.1-8.6,0.3-13.3,0.5c-4.7,0.2-9.7,0.5-14.9,0.8c-5.1,0.4-10.5,0.7-15.8,1.2
			c-2.7,0.2-5.4,0.5-8.1,0.7c-2.7,0.3-5.5,0.6-8.2,0.9c-2.7,0.3-5.5,0.6-8.2,1c-2.7,0.4-5.4,0.7-8.1,1.1c-5.4,0.7-10.6,1.6-15.7,2.4
			c-5.1,0.8-10,1.7-14.6,2.6c-2.3,0.4-4.6,0.9-6.7,1.3c-2.2,0.5-4.2,0.9-6.2,1.4c-4,0.9-7.6,1.6-10.9,2.4c-3.3,0.8-6.1,1.5-8.4,2.1
			c-4.7,1.2-7.4,1.9-7.4,1.9c-2.4,0.6-4.9-0.9-5.6-3.3c-0.6-2.4,0.9-4.9,3.3-5.6C393.9,328.9,394,328.9,394.1,328.9z"/>
		<path fill="#98D4C0" d="M686.7,440.4c0,0-4.5-7-11.3-17.6c-1.7-2.6-3.5-5.5-5.5-8.5c-1.9-3.1-4.1-6.1-6.3-9.3
			c-2.2-3.2-4.5-6.5-6.9-9.9c-1.2-1.7-2.3-3.4-3.5-5.1c-0.6-0.8-1.2-1.7-1.8-2.5l-1.9-2.5c-2.5-3.3-5-6.6-7.5-9.9
			c-1.2-1.6-2.5-3.3-3.7-4.9c-1.2-1.6-2.5-3.1-3.8-4.6c-2.5-3-4.9-5.9-7.2-8.6c-1.1-1.4-2.3-2.6-3.5-3.9c-1.1-1.2-2.3-2.4-3.3-3.6
			c-1.1-1.1-2.1-2.2-3.1-3.3c-1-1-2-1.9-2.9-2.8c-0.9-0.9-1.8-1.7-2.6-2.5c-0.8-0.8-1.5-1.5-2.2-2c-1.4-1.2-2.5-2.1-3.2-2.7
			c-0.8-0.6-1.2-0.9-1.2-0.9s0.4,0.3,1.3,0.8c0.8,0.6,1.9,1.4,3.4,2.5c0.8,0.5,1.5,1.2,2.4,1.9c0.8,0.7,1.8,1.5,2.7,2.3
			c1,0.8,2,1.7,3.1,2.6c1,1,2.1,2,3.3,3.1c1.1,1.1,2.3,2.2,3.6,3.4c1.2,1.2,2.5,2.3,3.8,3.7c2.5,2.6,5.1,5.3,7.9,8.2
			c1.3,1.4,2.8,2.8,4.1,4.4c1.3,1.5,2.7,3.1,4,4.6c2.7,3.1,5.5,6.3,8.2,9.4l2.1,2.4c0.7,0.8,1.3,1.6,2,2.4c1.3,1.6,2.6,3.3,3.9,4.9
			c2.6,3.2,5.1,6.4,7.6,9.5c2.5,3.1,4.9,6,7,8.9c2.1,2.9,4.2,5.6,6,8.1c7.5,10.1,12.4,16.8,12.4,16.8l0,0c1.5,2,1.1,4.9-1,6.4
			c-2,1.5-4.9,1.1-6.4-1C686.8,440.6,686.7,440.5,686.7,440.4z"/>
		<path fill="#98D4C0" d="M751,333c0,0-0.5-0.3-1.3-0.9c-0.9-0.6-2.1-1.5-3.7-2.6c-0.8-0.5-1.6-1-2.6-1.6c-0.9-0.6-1.9-1.2-3.1-1.8
			c-1.1-0.6-2.4-1.3-3.7-2c-1.3-0.6-2.7-1.3-4.2-2c-0.7-0.4-1.5-0.7-2.3-1c-0.8-0.3-1.6-0.7-2.4-1c-1.6-0.7-3.3-1.3-5.1-2
			c-1.7-0.7-3.6-1.3-5.4-1.9c-1.9-0.6-3.8-1.2-5.8-1.7c-3.9-1.1-8.1-2.1-12.3-2.9c-2.1-0.4-4.3-0.8-6.4-1.2c-2.2-0.3-4.3-0.7-6.5-1
			c-4.4-0.6-8.8-1-13.1-1.4c-4.3-0.4-8.6-0.5-12.8-0.7c-4.2-0.1-8.2-0.1-12-0.1c-3.8,0-7.4,0.2-10.8,0.3c-13.3,0.7-22.2,2-22.2,2
			s8.7-1.9,22-3.5c3.3-0.4,6.9-0.8,10.8-1c3.8-0.3,7.9-0.5,12.1-0.7c4.2-0.1,8.5-0.2,13-0.2c4.4,0,8.9,0.2,13.4,0.5
			c2.2,0.1,4.5,0.4,6.7,0.6c2.2,0.3,4.5,0.5,6.7,0.8c4.4,0.6,8.7,1.3,12.9,2.2c2.1,0.4,4.1,0.9,6.1,1.4c2,0.5,3.9,1,5.8,1.6
			c1.9,0.6,3.7,1.1,5.5,1.7c0.9,0.3,1.7,0.6,2.6,0.9c0.8,0.3,1.7,0.6,2.5,0.9c1.6,0.6,3.1,1.3,4.6,1.9c1.4,0.7,2.8,1.3,4.1,1.9
			c1.3,0.6,2.5,1.2,3.6,1.8c1.1,0.6,2.1,1.1,3,1.6c1.7,1,3,1.8,3.9,2.4c0.9,0.5,1.4,0.8,1.4,0.8c2.2,1.3,2.8,4.1,1.5,6.3
			c-1.3,2.2-4.1,2.8-6.3,1.5C751.1,333.1,751,333.1,751,333z"/>
		<path fill="#98D4C0" d="M710.8,209c0,0-3.9,2.9-9.7,7.3c-2.9,2.2-6.3,4.7-9.9,7.5c-1.8,1.4-3.7,2.8-5.6,4.2
			c-1.9,1.5-3.7,3-5.6,4.5c-3.8,3-7.5,6-11.1,8.9c-0.9,0.7-1.8,1.4-2.6,2.1c-0.8,0.7-1.6,1.4-2.4,2.1c-1.6,1.3-3.1,2.6-4.5,3.8
			c-1.4,1.2-2.7,2.2-3.8,3.2c-1.1,0.9-2.1,1.8-2.9,2.5c-1.6,1.4-2.5,2.2-2.5,2.2s0.8-0.9,2.2-2.5c0.7-0.8,1.6-1.8,2.6-2.8
			c1-1.1,2.1-2.3,3.4-3.6c1.2-1.3,2.6-2.8,4-4.3c0.7-0.8,1.4-1.5,2.2-2.3c0.8-0.8,1.5-1.6,2.3-2.4c3.2-3.2,6.6-6.7,10-10.2
			c1.7-1.7,3.4-3.5,5.1-5.2c1.7-1.6,3.4-3.3,5.1-4.8c3.3-3.1,6.3-6.1,9-8.6c5.3-5,8.8-8.4,8.8-8.4c1.8-1.7,4.7-1.7,6.5,0.1
			c1.7,1.8,1.7,4.7-0.1,6.5C711.1,208.8,710.9,208.9,710.8,209z"/>
		<path fill="#98D4C0" d="M710.9,163.5c0,0-3.1,2.5-7.8,6.2c-1.2,0.9-2.5,1.9-3.8,3c-1.3,1.1-2.7,2.2-4.1,3.4
			c-1.4,1.2-2.9,2.4-4.4,3.7c-1.5,1.3-3,2.6-4.5,3.9c-1.5,1.3-3,2.6-4.5,3.9c-1.5,1.3-2.9,2.6-4.3,3.9c-1.4,1.3-2.7,2.5-4,3.7
			c-1.2,1.2-2.4,2.3-3.5,3.3c-2.1,2.1-3.9,3.8-5.1,5.1c-1.2,1.2-1.9,2-1.9,2s0.6-0.8,1.6-2.2c1-1.4,2.6-3.4,4.4-5.8
			c0.9-1.2,1.9-2.5,3-3.8c1.1-1.4,2.2-2.8,3.4-4.2c1.2-1.5,2.4-3,3.7-4.5c1.3-1.5,2.6-3,3.9-4.5c1.3-1.5,2.6-3,3.9-4.5
			c1.3-1.5,2.6-2.9,3.9-4.3c1.3-1.4,2.5-2.8,3.7-4.1c1.2-1.3,2.3-2.4,3.3-3.5c4.1-4.4,6.9-7.3,6.9-7.3c1.7-1.8,4.6-1.9,6.5-0.2
			c1.8,1.7,1.9,4.6,0.2,6.5C711.2,163.2,711.1,163.4,710.9,163.5z"/>
		<path fill="#98D4C0" d="M451.8,134.6c0,0,0.8,0.4,2.2,1c0.7,0.3,1.6,0.8,2.7,1.2c0.5,0.2,1.1,0.5,1.7,0.8c0.6,0.3,1.3,0.7,2,1.1
			c1.4,0.8,2.9,1.6,4.6,2.5c1.6,1,3.3,2.1,5.1,3.2c0.9,0.6,1.8,1.1,2.7,1.8c0.9,0.7,1.9,1.3,2.8,2c1,0.7,2,1.4,3,2.1
			c1,0.8,2,1.6,3,2.4c2,1.6,4.2,3.3,6.2,5.2c2.1,1.8,4.3,3.7,6.4,5.8c1.1,1,2.2,2,3.3,3.1c1.1,1,2.2,2.2,3.2,3.3
			c1.1,1.1,2.2,2.2,3.3,3.3c1.1,1.2,2.2,2.3,3.3,3.5c1.1,1.2,2.2,2.4,3.3,3.6c1.1,1.2,2.2,2.5,3.2,3.7c2.2,2.5,4.3,5,6.5,7.6
			l1.6,1.9l1.6,2c1.1,1.3,2.1,2.7,3.2,4c2.1,2.7,4.1,5.4,6.2,8.1c2,2.8,4,5.5,6,8.2c1.9,2.8,3.9,5.5,5.8,8.3
			c1.9,2.8,3.8,5.5,5.6,8.3c1.8,2.7,3.6,5.5,5.3,8.1c3.4,5.4,6.7,10.6,9.7,15.6c3,5,5.8,9.8,8.3,14.2c10.1,17.7,16,29.9,16,29.9
			s-6.4-12-17.2-29.2c-2.7-4.3-5.7-8.9-8.9-13.8c-3.2-4.8-6.6-9.9-10.3-15.1c-1.8-2.6-3.7-5.2-5.6-7.9c-1.9-2.7-3.9-5.3-5.9-8
			c-2-2.7-4.1-5.3-6.1-8c-2.1-2.7-4.2-5.3-6.3-7.9c-2.2-2.6-4.3-5.2-6.5-7.8c-1.1-1.3-2.2-2.5-3.3-3.8l-1.6-1.9l-1.7-1.8
			c-2.2-2.5-4.4-4.9-6.7-7.2c-1.1-1.2-2.2-2.3-3.3-3.5c-1.1-1.1-2.3-2.2-3.4-3.4c-1.1-1.1-2.2-2.2-3.3-3.3c-1.1-1.1-2.2-2.1-3.4-3.1
			c-1.1-1-2.2-2.1-3.3-3c-1.1-1-2.2-1.9-3.3-2.9c-2.1-1.9-4.3-3.6-6.4-5.3c-2.1-1.7-4.2-3.2-6.2-4.7c-1-0.7-2-1.5-3-2.1
			c-1-0.7-2-1.3-2.9-1.9c-0.9-0.6-1.9-1.2-2.7-1.8c-0.9-0.6-1.8-1.1-2.7-1.6c-1.7-1-3.3-2-4.8-2.8c-1.5-0.8-2.9-1.5-4.1-2.1
			c-0.6-0.3-1.2-0.6-1.8-0.9c-0.6-0.3-1.2-0.5-1.7-0.7c-1.1-0.4-2-0.8-2.7-1.1c-1.5-0.6-2.2-0.9-2.2-0.9l0,0c-2.3-1-3.4-3.7-2.5-6
			s3.7-3.4,6-2.5C451.7,134.6,451.8,134.6,451.8,134.6z"/>
		<path fill="#98D4C0" d="M480.7,120.6c0,0,0.7,0.7,2,1.8c0.6,0.6,1.4,1.3,2.3,2.1c0.9,0.9,1.9,1.9,3,3c1.1,1.1,2.1,2.3,3.3,3.6
			c1.2,1.3,2.3,2.7,3.5,4.1c1.2,1.4,2.4,2.9,3.6,4.5c1.2,1.5,2.4,3.1,3.5,4.7c1.2,1.6,2.3,3.2,3.4,4.8c1.1,1.6,2.1,3.2,3.1,4.8
			c2,3.1,3.7,6.1,5.2,8.6c1.5,2.6,2.6,4.7,3.4,6.2c0.8,1.5,1.2,2.4,1.2,2.4s-2.2-3.2-5.8-7.8c-1.8-2.3-3.9-4.9-6.3-7.7
			c-1.2-1.4-2.4-2.8-3.7-4.2c-1.3-1.4-2.6-2.8-3.9-4.2c-1.4-1.4-2.7-2.8-4.1-4.1c-1.4-1.3-2.7-2.6-4.1-3.8c-1.3-1.2-2.6-2.4-3.9-3.4
			c-1.3-1-2.4-2.1-3.6-2.9c-1.1-0.8-2.1-1.6-3-2.3c-0.9-0.7-1.8-1.2-2.5-1.7c-1.4-1-2.2-1.5-2.2-1.5l0,0c-2.1-1.4-2.6-4.3-1.2-6.4
			c1.4-2.1,4.3-2.6,6.4-1.2C480.3,120.3,480.5,120.4,480.7,120.6z"/>
		<path fill="#98D4C0" d="M449.8,157.2c0,0,0.9,0.6,2.5,1.5c0.8,0.5,1.8,1.1,2.9,1.8c1.1,0.7,2.4,1.6,3.8,2.5
			c0.7,0.5,1.4,0.9,2.2,1.4c0.7,0.5,1.5,1,2.2,1.6c1.5,1.1,3.2,2.2,4.8,3.5c1.6,1.3,3.3,2.5,4.9,3.9c1.7,1.4,3.3,2.7,5,4.2
			c0.8,0.7,1.6,1.4,2.4,2.1c0.8,0.7,1.6,1.5,2.4,2.2c1.6,1.4,3.1,2.9,4.5,4.3c1.5,1.4,2.8,2.8,4.1,4.1c1.3,1.4,2.5,2.6,3.6,3.8
			c4.4,4.8,7,8.2,7,8.2s-3-3-8-7.2c-1.2-1-2.6-2.1-4-3.3c-1.5-1.1-3-2.3-4.6-3.5c-1.6-1.2-3.3-2.4-5-3.6c-0.9-0.6-1.7-1.2-2.6-1.8
			c-0.9-0.6-1.8-1.2-2.7-1.8c-1.8-1.2-3.6-2.3-5.3-3.4c-1.8-1.1-3.6-2.1-5.3-3.1c-1.7-1-3.4-1.9-5-2.7c-0.8-0.4-1.6-0.9-2.3-1.2
			c-0.8-0.4-1.5-0.7-2.2-1.1c-1.4-0.7-2.6-1.3-3.8-1.9c-1.2-0.5-2.2-1-3.1-1.4c-1.7-0.8-2.7-1.2-2.7-1.2c-2.3-1-3.4-3.7-2.3-6
			c1-2.3,3.7-3.4,6-2.3C449.5,157,449.7,157.1,449.8,157.2z"/>
		<path fill="#98D4C0" d="M408.2,301.5c0,0,2.5-0.3,6.8-0.8c2.2-0.2,4.8-0.5,7.8-0.9c0.8-0.1,1.5-0.2,2.3-0.3
			c0.8-0.1,1.7-0.1,2.5-0.2c1.7-0.1,3.5-0.3,5.4-0.4c3.8-0.2,7.9-0.7,12.2-0.8c2.2-0.1,4.4-0.2,6.6-0.2c2.3-0.1,4.6-0.2,6.9-0.2
			c4.7,0,9.6-0.1,14.5,0c2.5,0.1,5,0.1,7.5,0.2c2.5,0.1,5,0.1,7.5,0.3c2.5,0.1,5,0.3,7.5,0.4c1.2,0.1,2.5,0.1,3.7,0.2
			c1.2,0.1,2.5,0.2,3.7,0.3c2.5,0.2,4.9,0.4,7.3,0.6c2.4,0.2,4.8,0.5,7.1,0.8c4.7,0.5,9.2,1.2,13.4,1.8c2.1,0.3,4.2,0.7,6.2,1
			c2,0.3,3.9,0.6,5.8,1c1.8,0.4,3.6,0.7,5.3,1c1.7,0.3,3.3,0.7,4.7,1c3,0.6,5.6,1.3,7.7,1.8c4.2,1.1,6.6,1.8,6.6,1.8
			s-2.4-0.6-6.7-1.4c-2.2-0.4-4.8-0.9-7.8-1.3c-1.5-0.2-3.1-0.5-4.8-0.7c-1.7-0.2-3.5-0.5-5.3-0.7c-1.8-0.3-3.8-0.4-5.8-0.7
			c-2-0.2-4.1-0.5-6.2-0.6c-4.3-0.3-8.8-0.8-13.4-1c-2.3-0.1-4.7-0.3-7.1-0.4c-2.4-0.1-4.8-0.1-7.3-0.2c-1.2,0-2.4-0.1-3.7-0.1
			c-1.2,0-2.5,0-3.7,0c-2.5,0-5,0-7.4,0c-2.5,0-5,0.1-7.4,0.1c-2.5,0.1-4.9,0.1-7.4,0.2c-4.9,0.2-9.7,0.6-14.3,0.8
			c-2.3,0.1-4.6,0.4-6.8,0.6c-2.2,0.2-4.4,0.4-6.5,0.6c-4.3,0.3-8.2,1-11.9,1.4c-1.8,0.2-3.6,0.5-5.3,0.7c-0.8,0.1-1.6,0.2-2.4,0.3
			c-0.8,0.1-1.6,0.3-2.3,0.4c-3,0.5-5.6,0.9-7.8,1.3c-4.3,0.7-6.8,1.1-6.8,1.1c-2.5,0.4-4.9-1.3-5.3-3.7c-0.4-2.5,1.3-4.9,3.7-5.3
			C408,301.5,408.1,301.5,408.2,301.5z"/>
		<path fill="#98D4C0" d="M444.3,261.4c0,0,1.9,0.4,5.2,1c1.6,0.3,3.6,0.7,5.9,1.2c2.3,0.5,4.9,1.1,7.8,1.8c1.4,0.3,2.9,0.7,4.4,1.1
			c1.5,0.4,3.1,0.8,4.7,1.2c3.2,0.8,6.6,1.8,10,2.8c3.5,1,7,2.2,10.6,3.3c3.6,1.1,7.2,2.4,10.9,3.6c3.6,1.3,7.2,2.6,10.8,3.9
			c3.5,1.4,7,2.6,10.4,4c6.7,2.6,12.9,5.2,18.2,7.5c5.3,2.3,9.6,4.2,12.7,5.6c3,1.4,4.8,2.2,4.8,2.2s-1.8-0.7-4.9-1.9
			c-3.1-1.2-7.6-2.8-13.1-4.7c-5.4-1.9-11.8-4-18.6-6.1c-3.4-1.1-7-2.1-10.6-3.2c-3.6-1-7.3-2.1-11-3c-3.7-0.9-7.4-2-11-2.8
			c-3.6-0.9-7.2-1.8-10.7-2.5c-3.5-0.7-6.8-1.5-10.1-2c-1.6-0.3-3.2-0.6-4.7-0.9c-1.5-0.3-3-0.5-4.4-0.7c-2.8-0.4-5.3-0.8-7.6-1.2
			c-2.3-0.3-4.3-0.5-6-0.7c-3.3-0.4-5.2-0.6-5.2-0.6l0,0c-2.5-0.3-4.3-2.6-4-5.1c0.3-2.5,2.6-4.3,5.1-4
			C444,261.3,444.2,261.4,444.3,261.4z"/>
		<path fill="#98D4C0" d="M403.2,192.9c0,0,1.3,0.4,3.6,1.2c1.2,0.4,2.5,0.8,4.2,1.4c1.6,0.6,3.5,1.2,5.5,2c2,0.7,4.1,1.6,6.3,2.4
			c2.2,0.9,4.6,1.9,7,2.9c2.4,1,4.9,2.1,7.4,3.2c2.5,1.1,5,2.3,7.5,3.5c2.5,1.2,5,2.4,7.5,3.6c2.4,1.2,4.8,2.4,7.2,3.6
			c4.6,2.4,8.9,4.7,12.5,6.7c7.3,4,12,6.9,12,6.9s-5-2.4-12.6-5.6c-3.8-1.6-8.3-3.5-13.1-5.3c-2.4-1-4.9-1.9-7.4-2.9
			c-2.5-0.9-5.1-1.9-7.7-2.8c-2.6-0.9-5.2-1.8-7.8-2.7c-2.6-0.8-5.1-1.7-7.6-2.4c-2.5-0.7-4.8-1.5-7.1-2.1c-2.3-0.6-4.4-1.3-6.4-1.7
			c-2-0.5-3.8-0.9-5.4-1.3c-1.6-0.4-3.1-0.7-4.2-0.9c-2.4-0.5-3.7-0.8-3.7-0.8l0,0c-2.5-0.5-4-3-3.5-5.4c0.5-2.5,3-4,5.4-3.5
			C402.9,192.8,403,192.9,403.2,192.9z"/>
		<path fill="#98D4C0" d="M369.1,245.8c0,0,1.3-0.1,3.5-0.2c1.1,0,2.4-0.1,4-0.1c1.6,0,3.4,0,5.4,0c2,0,4.1,0.2,6.3,0.3
			c2.2,0.1,4.6,0.3,7,0.5c2.4,0.2,4.9,0.5,7.4,0.8c2.5,0.3,5,0.7,7.6,1.1c2.5,0.4,5,0.8,7.5,1.3c2.5,0.5,4.9,0.9,7.2,1.4
			c4.7,1,9,2,12.7,2.9c7.4,1.9,12.3,3.4,12.3,3.4s-5-1-12.5-2c-3.8-0.5-8.2-1-12.9-1.5c-2.4-0.2-4.8-0.4-7.3-0.6
			c-2.5-0.2-5-0.3-7.5-0.4c-2.5-0.1-5-0.2-7.5-0.2c-2.5,0-4.9-0.1-7.2,0c-2.3,0.1-4.6,0.1-6.7,0.3c-2.1,0.2-4.2,0.2-6,0.4
			c-1.8,0.2-3.5,0.4-4.9,0.5c-1.5,0.2-2.8,0.4-3.9,0.6c-2.2,0.3-3.4,0.5-3.4,0.5l0,0c-2.5,0.4-4.8-1.3-5.2-3.8
			c-0.4-2.5,1.3-4.8,3.8-5.2C368.7,245.8,368.9,245.8,369.1,245.8z"/>
		<path fill="#98D4C0" d="M407.9,361.4c0,0,3.8-1.4,9.5-3.4c1.4-0.5,3-1,4.7-1.5c1.7-0.5,3.5-1.1,5.3-1.7c0.9-0.3,1.9-0.6,2.8-0.9
			c0.9-0.3,1.9-0.5,2.9-0.8c1.9-0.5,3.9-1.1,5.9-1.6c2-0.6,3.9-1,5.9-1.5c1.9-0.5,3.9-0.9,5.7-1.4c3.7-0.8,7.2-1.6,10.2-2.2
			c3-0.6,5.5-1.1,7.2-1.4c1.7-0.3,2.7-0.5,2.7-0.5s-1,0.3-2.6,0.9c-1.7,0.6-4.1,1.4-6.9,2.4c-2.9,1-6.2,2.3-9.7,3.6
			c-1.8,0.7-3.6,1.4-5.4,2.2c-1.8,0.8-3.7,1.5-5.6,2.3c-1.8,0.8-3.7,1.6-5.5,2.4c-0.9,0.4-1.8,0.8-2.7,1.2c-0.9,0.4-1.7,0.8-2.6,1.2
			c-1.7,0.8-3.3,1.6-4.9,2.3c-1.5,0.7-3,1.4-4.3,2.1c-5.4,2.8-9,4.7-9,4.7l0,0c-2.2,1.2-5,0.3-6.2-1.9c-1.2-2.2-0.3-5,1.9-6.2
			C407.5,361.5,407.7,361.4,407.9,361.4z"/>
		<path fill="#98D4C0" d="M610.9,438.3c0,0-0.2-4.2-0.5-10.4c-0.1-1.6-0.1-3.3-0.3-5c-0.1-1.8-0.3-3.6-0.4-5.6
			c-0.1-1.9-0.2-3.9-0.4-6c-0.2-2-0.4-4.1-0.6-6.2c-0.2-2.1-0.4-4.2-0.6-6.2c-0.2-2-0.5-4-0.7-6c-0.2-1.9-0.5-3.8-0.7-5.6
			c-0.2-1.8-0.4-3.5-0.7-5c-0.4-3.1-0.8-5.7-1.1-7.5c-0.3-1.8-0.5-2.8-0.5-2.8s0.3,1,0.9,2.7c0.5,1.7,1.3,4.3,2.1,7.3
			c0.4,1.5,0.9,3.2,1.3,4.9c0.5,1.7,1,3.6,1.5,5.5c0.5,1.9,1,3.9,1.5,5.9c0.5,2,1,4,1.5,6.1c0.5,2,1,4.1,1.4,6.1c0.5,2,0.9,4,1.3,6
			c0.4,1.9,0.8,3.8,1.2,5.6c0.4,1.8,0.7,3.5,1,5c1.1,6.2,1.9,10.3,1.9,10.3c0.5,2.5-1.2,4.9-3.7,5.3c-2.5,0.5-4.9-1.2-5.3-3.7
			C611,438.7,610.9,438.5,610.9,438.3z"/>
		<path fill="#98D4C0" d="M543.3,417.8c0,0,0.2-0.8,0.6-2.1c0.2-0.7,0.4-1.5,0.6-2.4c0.3-1,0.7-2.1,1-3.3c0.2-0.6,0.4-1.2,0.6-1.9
			c0.2-0.6,0.5-1.3,0.7-1.9c0.5-1.3,1-2.7,1.7-4.2c0.6-1.4,1.2-2.9,2-4.3c0.4-0.7,0.7-1.5,1.1-2.2c0.4-0.7,0.8-1.4,1.1-2.2
			c0.8-1.5,1.6-2.9,2.4-4.2c0.8-1.4,1.7-2.7,2.5-4c0.8-1.3,1.6-2.5,2.4-3.6c0.8-1.1,1.6-2.2,2.3-3.2c2.9-3.9,5.1-6.2,5.1-6.2
			s-1.7,2.7-3.9,7c-0.5,1.1-1.1,2.2-1.7,3.5c-0.6,1.2-1.1,2.6-1.7,3.9c-0.5,1.4-1.2,2.8-1.7,4.3c-0.5,1.5-1.1,2.9-1.5,4.4
			c-0.2,0.7-0.5,1.5-0.7,2.2c-0.2,0.8-0.4,1.5-0.6,2.2c-0.4,1.5-0.8,2.9-1.1,4.4c-0.4,1.4-0.6,2.8-0.8,4.1c-0.1,0.7-0.2,1.3-0.3,1.9
			c-0.1,0.6-0.2,1.2-0.2,1.7c-0.1,1.1-0.3,2.1-0.4,3c-0.1,1-0.1,1.8-0.2,2.5c-0.1,1.4-0.2,2.2-0.2,2.2c-0.2,2.5-2.4,4.4-4.9,4.2
			c-2.5-0.2-4.4-2.4-4.2-4.9C543.2,418.4,543.2,418.1,543.3,417.8z"/>
		<path fill="#98D4C0" d="M680.6,391.8c0,0-0.2-0.3-0.4-0.8c-0.3-0.5-0.7-1.3-1.2-2.2c-0.3-0.4-0.5-0.9-0.9-1.4
			c-0.2-0.3-0.3-0.5-0.5-0.8c-0.2-0.3-0.4-0.6-0.6-0.9c-0.4-0.6-0.8-1.2-1.3-1.9c-0.5-0.7-1-1.3-1.5-2.1c-1.1-1.4-2.3-2.9-3.7-4.5
			c-1.4-1.6-2.9-3.2-4.5-4.8c-1.6-1.6-3.4-3.3-5.2-4.9c-1.8-1.6-3.7-3.2-5.6-4.8c-7.7-6.3-16-11.8-22.4-15.8
			c-6.4-3.9-10.9-6.2-10.9-6.2s4.7,1.8,11.6,5c6.8,3.2,15.8,7.8,24.4,13.3c2.1,1.4,4.3,2.8,6.3,4.2c2,1.5,4,3,5.9,4.5
			c1.9,1.5,3.7,3,5.3,4.5c1.7,1.5,3.2,3,4.6,4.4c0.7,0.7,1.3,1.4,1.9,2.1c0.6,0.7,1.2,1.3,1.7,1.9c0.3,0.3,0.5,0.6,0.8,0.9
			c0.2,0.3,0.5,0.6,0.7,0.9c0.4,0.6,0.9,1.1,1.2,1.6c0.7,0.9,1.2,1.6,1.5,2.1c0.3,0.5,0.5,0.7,0.5,0.7c1.5,2.1,1,4.9-1.1,6.4
			c-2.1,1.5-4.9,1-6.4-1.1C680.8,392.1,680.7,391.9,680.6,391.8z"/>
		<path fill="#98D4C0" d="M745.3,363.7c0,0-0.7-0.6-1.9-1.6c-0.6-0.5-1.3-1.2-2.1-1.9c-0.4-0.4-0.8-0.7-1.3-1.2
			c-0.5-0.4-0.9-0.8-1.4-1.2c-1-0.8-2.1-1.7-3.3-2.7c-1.2-0.9-2.5-1.9-3.8-2.9c-1.3-1-2.7-1.9-4.2-2.9c-1.4-1-2.9-1.9-4.4-2.9
			c-1.5-1-3-1.8-4.6-2.7c-1.5-0.8-3.1-1.6-4.5-2.4c-1.5-0.7-3-1.4-4.4-2c-1.4-0.6-2.8-1.1-4-1.6c-1.3-0.5-2.4-0.8-3.5-1.2
			c-1-0.3-2-0.6-2.7-0.7c-1.5-0.4-2.4-0.5-2.4-0.5s0.9,0,2.5,0.1c0.8,0.1,1.7,0.2,2.8,0.3c1.1,0.1,2.3,0.3,3.7,0.6
			c1.3,0.3,2.8,0.6,4.3,1c1.5,0.3,3.1,0.9,4.8,1.3c1.6,0.5,3.3,1.1,5,1.7c1.7,0.7,3.4,1.2,5.1,2c1.7,0.7,3.4,1.4,5,2.2
			c1.6,0.8,3.3,1.5,4.8,2.3c1.5,0.8,3,1.6,4.4,2.3c1.4,0.8,2.7,1.6,3.9,2.3c0.6,0.4,1.2,0.7,1.7,1c0.5,0.3,1,0.6,1.5,0.9
			c0.9,0.6,1.7,1.1,2.4,1.5c1.3,0.8,2.1,1.3,2.1,1.3c2.1,1.4,2.8,4.2,1.4,6.3c-1.4,2.1-4.2,2.8-6.3,1.4
			C745.7,364,745.5,363.9,745.3,363.7z"/>
		<path fill="#98D4C0" d="M715.8,335.4c0,0-0.8-0.5-2.1-1.3c-0.7-0.4-1.5-0.9-2.4-1.5c-0.9-0.5-1.9-1.1-3-1.7
			c-0.6-0.3-1.1-0.6-1.7-0.9c-0.6-0.3-1.3-0.6-1.9-0.9c-0.7-0.3-1.4-0.7-2.1-1c-0.7-0.3-1.5-0.6-2.2-1c-1.5-0.6-3.1-1.3-4.7-1.9
			c-0.8-0.3-1.6-0.6-2.4-0.9c-0.8-0.3-1.7-0.6-2.5-0.8c-1.7-0.6-3.4-1.1-5-1.6c-1.7-0.5-3.3-0.9-4.9-1.3c-1.6-0.4-3.2-0.8-4.7-1
			c-1.5-0.3-2.9-0.6-4.2-0.8c-2.6-0.5-4.8-0.7-6.4-0.9c-1.6-0.2-2.4-0.2-2.4-0.2s0.9-0.1,2.5-0.2c1.6-0.1,3.8-0.1,6.5-0.1
			c1.4,0,2.8,0.1,4.4,0.1c1.6,0.1,3.2,0.2,4.9,0.3c1.7,0.2,3.4,0.3,5.2,0.5c1.8,0.2,3.6,0.4,5.4,0.8c0.9,0.1,1.8,0.3,2.7,0.4
			c0.9,0.2,1.8,0.4,2.7,0.5c1.8,0.3,3.5,0.8,5.2,1.2c0.8,0.2,1.7,0.4,2.5,0.6c0.8,0.2,1.6,0.5,2.3,0.7c0.8,0.2,1.5,0.5,2.2,0.7
			c0.7,0.2,1.4,0.5,2.1,0.7c1.3,0.5,2.6,0.9,3.7,1.3c1,0.4,1.9,0.8,2.6,1.1c1.4,0.6,2.3,1,2.3,1c2.3,1,3.4,3.7,2.5,6
			c-1,2.3-3.7,3.4-6,2.5C716.2,335.6,716,335.5,715.8,335.4z"/>
		<path fill="#98D4C0" d="M758,257.8c0,0-1.1-0.1-3-0.3c-0.9-0.1-2.1-0.2-3.4-0.3c-1.3-0.1-2.7-0.1-4.2-0.2c-0.8,0-1.6-0.1-2.4-0.1
			c-0.9,0-1.7,0-2.6,0c-0.9,0-1.8,0-2.8,0c-1,0-1.9,0.1-2.9,0.1c-2,0.1-4.1,0.2-6.1,0.4c-1,0.1-2.1,0.2-3.2,0.3
			c-1.1,0.1-2.1,0.3-3.2,0.4c-2.1,0.2-4.3,0.6-6.3,0.9c-2.1,0.3-4.1,0.8-6.1,1.1c-2,0.4-3.9,0.8-5.7,1.3c-1.8,0.4-3.5,0.8-5.1,1.3
			c-3.1,0.8-5.7,1.6-7.5,2.2c-1.8,0.6-2.8,1-2.8,1s1-0.5,2.7-1.3c1.7-0.8,4.2-2,7.2-3.2c1.5-0.6,3.2-1.3,4.9-2
			c1.8-0.7,3.6-1.3,5.6-2c2-0.6,4-1.4,6-1.9c2.1-0.6,4.2-1.3,6.3-1.8c1.1-0.3,2.1-0.6,3.2-0.8c1.1-0.2,2.1-0.5,3.2-0.7
			c2.1-0.5,4.2-0.9,6.3-1.2c1-0.2,2-0.4,3-0.5c1-0.1,2-0.3,2.9-0.4c0.9-0.1,1.9-0.3,2.8-0.4c0.9-0.1,1.8-0.2,2.6-0.2
			c1.7-0.1,3.3-0.3,4.6-0.4c1.3-0.1,2.5-0.1,3.4-0.1c1.9-0.1,3-0.1,3-0.1c2.5-0.1,4.7,1.9,4.8,4.4s-1.9,4.7-4.4,4.8
			C758.4,257.8,758.2,257.8,758,257.8z"/>
		<path fill="#98D4C0" d="M614.5,138.6c0,0-0.1,4.5-0.3,11.2c-0.1,1.7-0.3,3.6-0.4,5.5c-0.2,2-0.3,4-0.5,6.2
			c-0.2,2.1-0.5,4.3-0.7,6.5c-0.3,2.2-0.5,4.4-0.8,6.7c-0.3,2.2-0.7,4.5-1,6.6c-0.3,2.2-0.6,4.3-1,6.4c-0.4,2.1-0.7,4.1-1.1,6
			c-0.3,1.9-0.7,3.7-1,5.3c-0.6,3.3-1.2,6.1-1.6,8c-0.4,1.9-0.7,3-0.7,3s0.1-1.1,0.3-3.1c0.2-2,0.4-4.7,0.6-8.1
			c0.1-1.7,0.3-3.5,0.3-5.4c0.1-1.9,0.2-3.9,0.3-6c0.1-2.1,0.1-4.3,0.2-6.5c0.1-2.2,0.1-4.4,0.2-6.7c0-2.2,0-4.5,0-6.6
			c0-2.2,0-4.4-0.1-6.4c-0.1-2.1-0.2-4-0.3-5.9c-0.1-1.9-0.1-3.6-0.3-5.3c-0.7-6.7-1.2-11.1-1.2-11.1l0,0c-0.3-2.5,1.6-4.8,4.1-5
			c2.5-0.3,4.8,1.6,5,4.1C614.5,138.2,614.5,138.4,614.5,138.6z"/>
	</g>
	<text transform="matrix(1 0 0 1 511.2388 176.875)"><tspan x="0" y="0" fill="#98D4C0" font-family="'Muli-Regular'" font-size="91.4296px">The</tspan><tspan x="-104.8" y="109.7" fill="#98D4C0" font-family="'Muli-Regular'" font-size="91.4296px">Firework</tspan><tspan x="-107.1" y="219.4" fill="#98D4C0" font-family="'Muli-Regular'" font-size="91.4296px">Treasury</tspan></text>
	<text transform="matrix(1 0 0 1 506.4927 175.0469)"><tspan x="0" y="0" fill="#FFFFFF" font-family="'Muli-Regular'" font-size="91.4296px">The</tspan><tspan x="-104.8" y="109.7" fill="#FFFFFF" font-family="'Muli-Regular'" font-size="91.4296px">Firework</tspan><tspan x="-107.1" y="219.4" fill="#FFFFFF" font-family="'Muli-Regular'" font-size="91.4296px">Treasury</tspan></text>
</g>
<g id="_x38_00x800">
</g>
<g id="designed_by_freepik">
</g>
</svg>
